<?xml version="1.0" standalone="no"?>
<!DOCTYPE svg PUBLIC "-//W3C//DTD SVG 20010904//EN"
 "http://www.w3.org/TR/2001/REC-SVG-20010904/DTD/svg10.dtd">
<svg version="1.0" xmlns="http://www.w3.org/2000/svg"
 width="500.000000pt" height="500.000000pt" viewBox="0 0 500.000000 500.000000"
 preserveAspectRatio="xMidYMid meet">

<g transform="translate(0.000000,500.000000) scale(0.100000,-0.100000)"
fill="#000000" stroke="none">
<path d="M276 3108 c-35 -55 -27 -132 17 -163 33 -23 55 -18 77 18 24 38 25
78 5 117 -19 37 -28 39 -15 4 13 -33 13 -90 0 -115 -17 -30 -57 -24 -75 11
-19 36 -19 61 -1 105 9 21 23 35 38 38 21 4 21 4 -4 6 -19 1 -32 -6 -42 -21z"/>
<path d="M452 3123 c-38 -15 -56 -129 -26 -171 16 -23 48 -29 59 -12 3 5 0 7
-7 5 -45 -18 -71 84 -35 139 26 38 47 44 69 17 23 -29 24 -98 1 -131 l-16 -25
27 25 c25 22 27 30 23 73 -6 69 -43 101 -95 80z"/>
<path d="M1320 3083 c-174 -91 -152 -353 34 -408 62 -19 80 -19 142 0 131 39
191 188 127 316 -56 110 -191 151 -303 92z m180 -45 c63 -33 83 -66 87 -141 3
-51 0 -69 -19 -101 -29 -50 -78 -76 -143 -76 -65 0 -114 26 -143 76 -29 50
-27 148 4 191 25 35 98 73 139 73 17 0 51 -10 75 -22z"/>
<path d="M1825 3086 c-92 -42 -131 -113 -122 -221 19 -244 371 -275 437 -39
52 186 -138 343 -315 260z m196 -61 c47 -31 74 -95 66 -161 -5 -52 -29 -89
-77 -121 -46 -32 -134 -32 -181 0 -84 55 -96 202 -22 269 58 53 147 58 214 13z"/>
<path d="M3040 3083 c-174 -91 -152 -353 34 -408 62 -19 80 -19 142 0 131 39
191 188 127 316 -56 110 -191 151 -303 92z m180 -45 c63 -33 83 -66 87 -141 3
-51 0 -69 -19 -101 -29 -50 -78 -76 -143 -76 -65 0 -114 26 -143 76 -29 50
-27 148 4 191 25 35 98 73 139 73 17 0 51 -10 75 -22z"/>
<path d="M3914 3101 c-35 -15 -74 -70 -74 -104 0 -60 30 -91 121 -126 46 -18
92 -39 101 -48 25 -23 22 -56 -8 -84 -21 -20 -35 -24 -82 -23 -31 0 -71 8 -88
17 -30 16 -32 15 -42 -8 -10 -21 -8 -25 21 -38 149 -70 310 15 266 141 -13 37
-39 55 -127 89 -81 30 -102 47 -102 84 0 55 77 75 165 44 40 -14 54 -9 55 21
0 29 -157 56 -206 35z"/>
<path d="M810 2885 l0 -215 30 0 30 0 0 100 0 100 110 0 110 0 0 -100 0 -100
30 0 30 0 0 215 0 215 -30 0 -30 0 0 -90 0 -90 -110 0 -110 0 0 90 0 90 -30 0
-30 0 0 -215z"/>
<path d="M2200 2885 l0 -215 30 0 30 0 0 100 0 100 100 0 100 0 0 25 0 25
-100 0 -100 0 0 65 0 65 110 0 110 0 0 25 0 25 -140 0 -140 0 0 -215z"/>
<path d="M2530 2885 l0 -215 25 0 c24 0 24 1 27 98 l3 97 113 3 112 3 0 -101
0 -100 30 0 30 0 0 215 0 215 -30 0 -30 0 0 -90 0 -90 -115 0 -115 0 0 90 c0
89 0 90 -25 90 l-25 0 0 -215z"/>
<path d="M3420 2963 c1 -219 23 -271 125 -294 109 -24 198 16 223 99 7 22 12
103 12 186 l0 146 -30 0 -30 0 0 -150 c0 -203 -14 -230 -120 -230 -105 0 -120
30 -120 235 l0 145 -30 0 -30 0 0 -137z"/>
<path d="M4200 2885 l0 -215 140 0 140 0 0 25 0 25 -115 0 -115 0 0 75 0 75
105 0 105 0 0 25 0 25 -105 0 -105 0 0 65 0 65 115 0 115 0 0 25 0 25 -140 0
-140 0 0 -215z"/>
<path d="M163 2965 c-64 -45 -15 -203 57 -180 11 3 27 19 35 35 24 46 19 86
-15 122 l-30 33 20 -40 c34 -67 22 -135 -25 -135 -32 0 -55 35 -55 86 0 52 8
74 26 74 8 0 14 5 14 10 0 13 -2 13 -27 -5z"/>
<path d="M593 2967 c-13 -5 -23 -15 -23 -21 0 -6 5 -5 12 2 36 36 85 -13 75
-74 -8 -45 -33 -74 -64 -74 -30 0 -47 40 -40 95 5 39 5 39 -8 15 -20 -36 -18
-73 6 -104 26 -33 49 -33 88 0 27 23 31 32 31 78 0 38 -5 57 -17 68 -29 24
-37 26 -60 15z"/>
<path d="M334 2838 c-51 -38 -115 -120 -114 -145 1 -4 9 6 18 23 21 39 105
112 138 120 37 9 67 -2 116 -45 63 -56 75 -89 52 -138 -25 -48 -60 -61 -109
-37 -34 16 -39 16 -71 0 -51 -24 -73 -20 -110 20 -19 19 -31 27 -27 17 10 -30
26 -45 62 -60 30 -13 38 -13 73 3 31 14 43 15 64 6 44 -21 83 -15 115 17 61
61 23 152 -91 220 -45 27 -79 27 -116 -1z"/>
</g>
</svg>
